<svg width="375" height="333" viewBox="0 0 375 333" fill="none" xmlns="http://www.w3.org/2000/svg">
<g filter="url(#filter0_d)">
<path d="M0 0H375V231C375 253.644 356.644 272 334 272H0V0Z" fill="url(#paint0_radial)"/>
</g>
<g opacity="0.15">
<path fill-rule="evenodd" clip-rule="evenodd" d="M211.472 -14.925C194.681 -34.0547 164.348 -42.25 125.539 -42.25H12.8801C4.94991 -42.25 -1.8026 -36.4801 -3.03939 -28.6466L-49.9489 268.794C-50.8755 274.664 -46.3382 279.969 -40.3979 279.969H29.1504L24.3509 310.405C23.5424 315.54 27.5075 320.184 32.7057 320.184H91.3259C98.2668 320.184 104.174 315.134 105.256 308.283L105.831 305.304L116.874 235.282L117.587 231.413C118.668 224.558 124.575 219.512 131.512 219.512H140.281C197.073 219.512 241.543 196.439 254.534 129.718C259.965 101.839 257.159 78.5676 242.802 62.2066C238.456 57.2599 233.055 53.166 226.753 49.8288C231.176 21.6363 226.723 2.4512 211.472 -14.925Z" fill="white"/>
<path fill-rule="evenodd" clip-rule="evenodd" d="M226.753 49.8374C231.176 21.6423 226.723 2.4554 211.472 -14.9224C194.681 -34.0539 164.348 -42.25 125.539 -42.25H12.8802C4.94992 -42.25 -1.8026 -36.4795 -3.03939 -28.6453L-49.9489 268.823C-50.8755 274.694 -46.3382 279.999 -40.3979 279.999H29.1504L46.6206 169.219L46.0779 172.693C47.3146 164.859 54.0118 159.085 61.942 159.085H94.9994C159.918 159.085 210.748 132.71 225.601 56.4349C226.04 54.1791 226.417 51.9898 226.753 49.8374Z" fill="white"/>
<path fill-rule="evenodd" clip-rule="evenodd" d="M65.3866 50.214C66.1323 45.4994 69.156 41.6414 73.2282 39.6884C75.0815 38.8023 77.149 38.3076 79.3162 38.3076H167.623C178.086 38.3076 187.84 38.9943 196.756 40.4304C199.307 40.8402 201.784 41.3128 204.195 41.8481C206.602 42.3798 208.943 42.9779 211.206 43.6424C212.34 43.971 213.451 44.318 214.547 44.6835C218.926 46.1345 223.002 47.8512 226.753 49.8374C231.176 21.6423 226.723 2.4554 211.472 -14.9224C194.681 -34.0539 164.348 -42.25 125.539 -42.25H12.8802C4.94992 -42.25 -1.8026 -36.4795 -3.03939 -28.6453L-49.9489 268.823C-50.8755 274.694 -46.3382 279.999 -40.3979 279.999H29.1504L65.3866 50.214Z" fill="white"/>
</g>
<defs>
<filter id="filter0_d" x="-20" y="-4" width="415" height="312" filterUnits="userSpaceOnUse" color-interpolation-filters="sRGB">
<feFlood flood-opacity="0" result="BackgroundImageFix"/>
<feColorMatrix in="SourceAlpha" type="matrix" values="0 0 0 0 0 0 0 0 0 0 0 0 0 0 0 0 0 0 127 0"/>
<feMorphology radius="16" operator="erode" in="SourceAlpha" result="effect1_dropShadow"/>
<feOffset dy="16"/>
<feGaussianBlur stdDeviation="18"/>
<feColorMatrix type="matrix" values="0 0 0 0 0.0823529 0 0 0 0 0.27451 0 0 0 0 0.627451 0 0 0 0.5 0"/>
<feBlend mode="normal" in2="BackgroundImageFix" result="effect1_dropShadow"/>
<feBlend mode="normal" in="SourceGraphic" in2="effect1_dropShadow" result="shape"/>
</filter>
<radialGradient id="paint0_radial" cx="0" cy="0" r="1" gradientUnits="userSpaceOnUse" gradientTransform="translate(-83.5 -74.4762) rotate(33.3373) scale(548.806 680.547)">
<stop stop-color="#0070BA"/>
<stop offset="1" stop-color="#1546A0"/>
</radialGradient>
</defs>
</svg>
